<svg height="512pt" viewBox="0 -31 512 512" width="512pt" xmlns="http://www.w3.org/2000/svg"><path d="m391 195c0 41.398438-33.601562 75-75 75h-240c-41.398438 0-76-33.601562-76-75 0-63.601562 31.902344-120 79-155.699219l44.699219 20.699219-18.898438-37.199219c27.300781-14.402343 58.199219-22.800781 91.199219-22.800781s63.898438 8.398438 91.199219 22.800781l-18.898438 37.199219 44.699219-20.699219c47.097656 35.699219 78 92.097657 78 155.699219zm0 0" fill="#dd8858"/><path d="m391 195c0 41.398438-33.601562 75-75 75h-120v-270c33 0 63.898438 8.398438 91.199219 22.800781l-18.898438 37.199219 44.699219-20.699219c47.097656 35.699219 78 92.097657 78 155.699219zm0 0" fill="#ca6d36"/><path d="m262.300781 90 50.699219-50.699219c-8.398438-6-16.800781-11.699219-25.800781-16.5l-46.199219 45.898438-34.5-34.199219c-2.699219-3-6.601562-4.5-10.5-4.5s-7.800781 1.5-10.5 4.5l-34.5 34.199219-46.199219-45.898438c-9 4.796875-17.402343 10.5-25.800781 16.5l50.699219 50.699219-34.199219 34.5c-6 5.699219-6 15.300781 0 21 5.699219 6 15.296875 6 21 0l34.5-34.199219 23.699219 23.699219-19.199219 19.5c-6 5.699219-6 15.300781 0 21 5.699219 6 15.296875 6 21 0l19.5-19.199219 19.5 19.199219c5.699219 6 15.300781 6 21 0 6-5.699219 6-15.300781 0-21l-19.199219-19.5 23.699219-23.699219 34.5 34.199219c5.699219 6 15.300781 6 21 0 6-5.699219 6-15.300781 0-21zm-66.300781 23.699219-23.699219-23.699219 23.699219-23.699219 23.699219 23.699219zm0 0" fill="#ca6d36"/><path d="m296.5 124.5c6 5.699219 6 15.300781 0 21-5.699219 6-15.300781 6-21 0l-34.5-34.199219-23.699219 23.699219 19.199219 19.5c6 5.699219 6 15.300781 0 21-5.699219 6-15.296875 6-21 0l-19.5-19.199219v-42.601562l23.699219-23.699219-23.699219-23.699219v-36.300781c3.898438 0 7.800781 1.5 10.5 4.5l34.5 34.199219 46.199219-45.898438c9 4.796875 17.402343 10.5 25.800781 16.5l-50.699219 50.699219zm0 0" fill="#a05528"/><path d="m512 375c0 41.398438-34.601562 75-76 75h-240c-41.398438 0-75-33.601562-75-75 0-63.601562 30.902344-120 78-155.699219l44.699219 20.699219-18.898438-37.199219c27.300781-14.402343 58.199219-22.800781 91.199219-22.800781s63.898438 8.398438 91.199219 22.800781l-18.898438 37.199219 44.699219-20.699219c47.097656 35.699219 79 92.097657 79 155.699219zm0 0" fill="#ffb751"/><path d="m512 375c0 41.398438-34.601562 75-76 75h-120v-270c33 0 63.898438 8.398438 91.199219 22.800781l-18.898438 37.199219 44.699219-20.699219c47.097656 35.699219 79 92.097657 79 155.699219zm0 0" fill="#ff9b00"/><path d="m382.300781 270 50.699219-50.699219c-8.398438-6-16.800781-11.699219-25.800781-16.5l-46.199219 45.898438-34.5-34.199219c-2.699219-3-6.601562-4.5-10.5-4.5s-7.800781 1.5-10.5 4.5l-34.5 34.199219-46.199219-45.898438c-9 4.796875-17.402343 10.5-25.800781 16.5l50.699219 50.699219-34.199219 34.5c-6 5.699219-6 15.300781 0 21 5.699219 6 15.300781 6 21 0l34.5-34.199219 23.699219 23.699219-19.199219 19.5c-6 5.699219-6 15.300781 0 21 5.699219 6 15.296875 6 21 0l19.5-19.199219 19.5 19.199219c5.699219 6 15.300781 6 21 0 6-5.699219 6-15.300781 0-21l-19.199219-19.5 23.699219-23.699219 34.5 34.199219c5.699219 6 15.300781 6 21 0 6-5.699219 6-15.300781 0-21zm-66.300781 23.699219-23.699219-23.699219 23.699219-23.699219 23.699219 23.699219zm0 0" fill="#ff9b00"/><path d="m416.5 304.5c6 5.699219 6 15.300781 0 21-5.699219 6-15.300781 6-21 0l-34.5-34.199219-23.699219 23.699219 19.199219 19.5c6 5.699219 6 15.300781 0 21-5.699219 6-15.296875 6-21 0l-19.5-19.199219v-42.601562l23.699219-23.699219-23.699219-23.699219v-36.300781c3.898438 0 7.800781 1.5 10.5 4.5l34.5 34.199219 46.199219-45.898438c9 4.796875 17.402343 10.5 25.800781 16.5l-50.699219 50.699219zm0 0" fill="#ff8900"/></svg>