<?xml version="1.0" encoding="iso-8859-1"?>
<!-- Generator: Adobe Illustrator 19.0.0, SVG Export Plug-In . SVG Version: 6.00 Build 0)  -->
<svg version="1.1" id="Capa_1" xmlns="http://www.w3.org/2000/svg" xmlns:xlink="http://www.w3.org/1999/xlink" x="0px" y="0px"
	 viewBox="0 0 512.002 512.002" style="enable-background:new 0 0 512.002 512.002;" xml:space="preserve">
<g>
	<g>
		<path d="M511.927,226.063c-3.222-56.742-47.407-102.623-103.987-107.979l-0.208-0.025c-6.504-0.67-12.118-4.847-14.629-10.883
			L373.323,59.7c-6.956-17.405-20.725-31.209-38.112-38.208c-22.647-8.665-48.214-4.342-66.754,11.287L218.794,74.8
			c-15.982,13.451-36.729,19.859-57.513,17.762l-7.587-0.783C77.135,83.866,8.657,139.515,0.744,216.074
			c-6.724,65.053,32.693,126.031,94.771,146.609c24.541,8.072,44.739,25.785,55.946,49.063l14.671,30.958
			c11.487,24.851,33.592,43.177,60.142,49.858c41.395,9.689,83.851-11.313,101.267-50.096l25.908-58.283
			c10.346-23.196,32.277-39.114,57.537-41.762C469.973,336.169,514.066,285.342,511.927,226.063z M409.228,325.446
			c-31.335,3.285-58.54,23.031-71.375,51.804l-25.904,58.283c-14.058,31.334-48.372,48.286-81.8,40.412
			c-21.487-5.488-39.345-20.389-48.592-40.546l-14.671-30.963c-13.212-27.481-37.038-48.404-65.996-57.954
			c-64.113-21.254-98.858-90.457-77.604-154.571c6.667-20.11,18.443-38.143,34.175-52.333
			c25.715-23.177,60.044-34.377,94.479-30.825l7.588,0.783c25.404,2.574,50.765-5.26,70.292-21.712l49.663-42.021
			c13.804-11.607,32.819-14.809,49.662-8.363c13.01,5.33,23.28,15.742,28.429,28.825l19.779,47.475
			c4.884,11.742,15.774,19.893,28.417,21.271l0.225,0.025c48.222,4.37,86.002,43.341,88.875,91.675
			C496.689,277.01,459.278,320.14,409.228,325.446z"/>
	</g>
</g>
<g>
	<g>
		<path d="M111.636,314.088c-36.092-11.915-60.46-45.65-60.429-83.658c0-4.713-3.82-8.533-8.533-8.533s-8.533,3.82-8.533,8.533
			c-0.037,45.365,29.045,85.631,72.121,99.858c4.474,1.484,9.303-0.939,10.788-5.413
			C118.533,320.402,116.109,315.572,111.636,314.088z"/>
	</g>
</g>
<g>
	<g>
		<path d="M292.019,417.338c-4.308-1.915-9.352,0.026-11.267,4.333c-7.423,16.349-25.376,25.16-42.85,21.029
			c-11.365-3.089-20.731-11.138-25.496-21.908l-14.675-30.971c-2.018-4.26-7.107-6.076-11.367-4.058
			c-4.26,2.018-6.076,7.107-4.058,11.367l14.675,30.971c8.544,19.908,28.157,32.784,49.821,32.708
			c21.425-0.014,40.837-12.631,49.55-32.204C298.267,424.297,296.327,419.252,292.019,417.338z"/>
	</g>
</g>
<g>
	<g>
		<path d="M477.819,227.354c-2.524-39.848-33.794-71.869-73.571-75.337l-1.821-0.192c-4.488-1.036-8.965,1.762-10.001,6.25
			c-0.001,0.004-0.002,0.008-0.003,0.012c-1.061,4.641,1.786,9.278,6.404,10.434c0.4,0.102,0.806,0.174,1.217,0.217l2.438,0.254
			c31.341,2.56,56.109,27.637,58.279,59.008c1.179,32.338-22.867,60.074-55.046,63.492c-4.688,0.488-8.092,4.683-7.604,9.371
			c0.452,4.343,4.109,7.644,8.475,7.65c0.296,0.001,0.593-0.014,0.887-0.046C448.587,304.103,479.315,268.672,477.819,227.354z"/>
	</g>
</g>
<g>
	<g>
		<path d="M170.673,145.075c-47.128,0-85.333,38.205-85.333,85.333c0.052,47.107,38.227,85.281,85.333,85.333
			c47.128,0,85.333-38.205,85.333-85.333S217.802,145.075,170.673,145.075z M170.673,298.675c-37.703,0-68.267-30.564-68.267-68.267
			c0.043-37.685,30.582-68.224,68.267-68.267c37.703,0,68.267,30.564,68.267,68.267S208.376,298.675,170.673,298.675z"/>
	</g>
</g>
<g>
	<g>
		<path d="M176.786,187.517h-0.004v-0.004c-5.559-5.519-13.216-8.393-21.033-7.896c-7.858,0.446-15.269,3.8-20.792,9.408
			c-11.929,11.15-12.604,29.845-1.508,41.825c5.19,5.139,12.221,7.989,19.525,7.912c16.834-0.254,30.642-13.411,31.708-30.213
			C185.182,200.732,182.308,193.074,176.786,187.517z M167.636,207.683c-0.237,3.635-1.815,7.054-4.429,9.591
			c-4.499,5.244-12.37,5.915-17.692,1.508c-4.408-5.321-3.737-13.193,1.508-17.691h0c2.537-2.615,5.956-4.194,9.591-4.429
			c0.212-0.012,0.425-0.017,0.638-0.017c2.779-0.061,5.467,0.997,7.458,2.938l0.004,0.004
			C166.803,201.743,167.866,204.691,167.636,207.683z"/>
	</g>
</g>
<g>
</g>
<g>
</g>
<g>
</g>
<g>
</g>
<g>
</g>
<g>
</g>
<g>
</g>
<g>
</g>
<g>
</g>
<g>
</g>
<g>
</g>
<g>
</g>
<g>
</g>
<g>
</g>
<g>
</g>
</svg>
